<?xml version="1.0" encoding="UTF-8"?>
<svg id="Capa_2" data-name="Capa 2" xmlns="http://www.w3.org/2000/svg" viewBox="0 0 928.02 923.59">
  <defs>
    <style>
      .cls-1 {
        fill: #686868;
      }

      .cls-1, .cls-2, .cls-3 {
        stroke-width: 0px;
      }

      .cls-2 {
        fill: #fff;
      }

      .cls-3 {
        fill: #d80000;
      }
    </style>
  </defs>
  <g id="Capa_1-2" data-name="Capa 1">
    <g>
      <polygon class="cls-1" points="559.4 911.32 800.36 0 0 161 421.33 804.73 559.4 911.32"/>
      <polygon class="cls-3" points="99.74 209.02 878.9 52.29 559.4 911.32 99.74 209.02"/>
      <path class="cls-2" d="m574.54,536.48v-114.74c26.28,0,39.42-10.04,39.42-30.13,0-18.37-10.05-27.56-30.13-27.56s-30.45,12.61-30.45,37.82v285.9h-130.13v-272.44c0-28.21,2.83-51.33,8.49-69.39,5.66-18.05,15.33-34.88,29.01-50.48,15.38-17.31,34.61-30.98,57.69-41.03,23.08-10.04,46.9-15.06,71.47-15.06,44.44,0,81.78,14.96,112.02,44.87,30.23,29.92,45.35,66.99,45.35,111.22s-13.57,77.78-40.71,104.49c-24.79,24.57-62.18,36.86-112.18,36.86l-19.87-.32Z"/>
      <g>
        <path class="cls-1" d="m655.58,878.33l-35.59-12.42,23.44,28.05-1.13,3.21-35.63,7.31,35.36,12.41-2.35,6.69-48.82-17.14,2.01-5.72,41.46-8.32-27.26-32.13,2.01-5.72,48.84,17.07-2.35,6.7Z"/>
        <path class="cls-1" d="m638.04,820.98c3.46-1.84,7.69-1.88,12.66-.14l22.32,7.84-2.23,6.35-4.88-1.71c1.33,1.72,2.08,3.77,2.26,6.16.18,2.39-.23,5-1.22,7.83-1.45,4.14-3.61,7.1-6.49,8.89-2.87,1.78-5.94,2.11-9.19.96-3.25-1.14-5.45-3.25-6.6-6.31-1.14-3.06-.81-7.18,1-12.34l3.72-10.6-1.32-.47c-2.88-1.01-5.39-.95-7.51.19-2.12,1.13-3.75,3.33-4.9,6.58-.77,2.19-1.16,4.45-1.17,6.79-.01,2.35.33,4.45,1.03,6.32l-6,1.03c-.86-2.44-1.24-5.13-1.12-8.07.12-2.94.7-5.89,1.74-8.87,1.79-5.11,4.43-8.59,7.89-10.43Zm24.75,16.17c-.49-2.26-1.63-4.18-3.43-5.75l-5.16-1.81-3.62,10.32c-1.99,5.67-1.08,9.18,2.73,10.52,1.86.65,3.58.45,5.15-.62,1.58-1.06,2.81-2.88,3.71-5.43.9-2.56,1.1-4.96.62-7.23Z"/>
        <path class="cls-1" d="m645.8,792.17c-.32-2.67.1-5.63,1.24-8.89l6.48,2.28c-.18.36-.38.86-.61,1.51-1.27,3.63-1.19,6.85.24,9.68,1.44,2.83,4.15,4.94,8.15,6.35l18.41,6.47-2.35,6.69-36.96-12.98,2.25-6.42,6.2,2.18c-1.73-1.91-2.75-4.2-3.07-6.88Z"/>
        <path class="cls-1" d="m675.06,767.74l4.42,10.17,10.11,3.55-2.35,6.69-51.75-18.17,2.35-6.69,33.2,11.65-11.33-26.62,2.84-8.09,9.81,20.91,27.69-9.47-2.89,8.23-22.1,7.83Z"/>
        <path class="cls-1" d="m697.22,707.76l-10.53,29.99c3.4.72,6.52.21,9.35-1.53,2.83-1.75,4.89-4.43,6.16-8.06,1.55-4.42,1.31-8.5-.72-12.24l5.62-2.18c1.36,2.36,2.12,4.96,2.27,7.81s-.32,5.8-1.39,8.87c-1.37,3.91-3.39,7.09-6.05,9.55s-5.73,4.01-9.19,4.64c-3.46.64-7.01.32-10.63-.95-3.58-1.26-6.53-3.19-8.85-5.81-2.32-2.62-3.79-5.61-4.4-8.99-.62-3.38-.31-6.83.94-10.36,1.24-3.53,3.15-6.4,5.72-8.6,2.58-2.2,5.58-3.58,9.01-4.12,3.43-.54,7-.16,10.72,1.14.51.18,1.17.46,1.97.85Zm-21.68,21.8c1.19,2.85,3.31,5.01,6.34,6.49l8.32-23.71c-3.25-.72-6.23-.35-8.97,1.12-2.73,1.47-4.67,3.81-5.79,7.01-1.13,3.21-1.09,6.24.1,9.08Z"/>
        <path class="cls-1" d="m721.91,682.51c.49,1.27.71,2.7.65,4.3-.07,1.6-.37,3.16-.91,4.7-1.3,3.72-3.32,6.25-6.03,7.59-2.72,1.34-5.93,1.36-9.66.06l-20.29-7.13-2.2,6.28-5.51-1.93,2.2-6.28-8.09-2.84,2.35-6.7,8.09,2.84,3.72-10.6,5.51,1.93-3.72,10.6,20.01,7.03c2,.7,3.71.74,5.13.12,1.42-.62,2.46-1.87,3.11-3.73.72-2.05.75-3.99.09-5.84l5.55-.4Z"/>
        <path class="cls-1" d="m681.61,659.16c-1.14.57-2.31.64-3.52.21-1.21-.42-2.09-1.22-2.65-2.38-.56-1.16-.61-2.39-.15-3.7.46-1.3,1.24-2.24,2.36-2.81,1.12-.57,2.28-.65,3.49-.23,1.26.44,2.16,1.24,2.72,2.4.56,1.16.61,2.39.15,3.7-.46,1.3-1.26,2.24-2.39,2.8Zm8.33,3.04l2.35-6.69,36.96,12.98-2.35,6.69-36.96-12.98Z"/>
        <path class="cls-1" d="m711.37,613.13c3.69-1.81,8.16-1.8,13.42.05l21.27,7.47-2.35,6.69-20.5-7.2c-3.58-1.26-6.58-1.34-9-.26-2.42,1.08-4.19,3.23-5.32,6.44-1.27,3.63-1.22,6.86.16,9.69,1.38,2.84,4.05,4.95,8,6.33l19.04,6.68-2.35,6.69-36.96-12.98,2.25-6.42,5.58,1.96c-1.43-2.02-2.26-4.36-2.47-7.02-.22-2.66.19-5.46,1.22-8.38,1.65-4.7,4.32-7.95,8.01-9.76Z"/>
        <path class="cls-1" d="m725.94,559.69l31.94,11.21c6.46,2.27,10.68,5.55,12.64,9.84,1.96,4.29,1.83,9.63-.41,16-1.23,3.49-2.87,6.64-4.93,9.47-2.06,2.83-4.32,4.91-6.77,6.24l-4.03-5.02c2.09-1.2,4.01-2.91,5.76-5.14,1.75-2.23,3.1-4.7,4.04-7.39,1.52-4.32,1.62-7.88.3-10.67-1.32-2.79-4.07-4.92-8.26-6.39l-2.93-1.03c1.35,2.25,2.1,4.69,2.24,7.33.15,2.64-.26,5.3-1.2,8-1.24,3.53-3.12,6.47-5.63,8.79-2.51,2.33-5.42,3.83-8.71,4.5-3.29.67-6.68.4-10.17-.83-3.49-1.22-6.3-3.12-8.45-5.71-2.15-2.58-3.46-5.56-3.95-8.95-.48-3.38-.1-6.84,1.14-10.37.98-2.79,2.4-5.2,4.27-7.24s4.06-3.47,6.6-4.3l-5.72-2.01,2.23-6.35Zm23.57,22.57c-.35-2.29-1.24-4.3-2.7-6.04-1.45-1.74-3.34-3.01-5.67-3.83-3.58-1.26-6.89-1.09-9.93.51-3.04,1.6-5.21,4.25-6.52,7.97-1.32,3.76-1.29,7.22.08,10.37s3.85,5.35,7.43,6.61c2.33.82,4.6,1,6.82.55s4.18-1.46,5.88-3.03c1.7-1.57,2.98-3.59,3.85-6.05.85-2.42,1.1-4.77.76-7.06Z"/>
        <path class="cls-1" d="m741.96,490.66c4.3-2.57,9.09-2.92,14.39-1.06,5.3,1.86,8.82,5.14,10.57,9.82s1.51,10.19-.71,16.52l-4.24,12.06,14.79,5.19-2.45,6.97-48.82-17.14,6.68-19.04c2.22-6.32,5.48-10.77,9.78-13.33Zm18.84,12.26c-1.07-2.98-3.37-5.1-6.9-6.34-3.53-1.24-6.65-1.03-9.35.63-2.7,1.66-4.82,4.7-6.38,9.12l-4.16,11.86,21.9,7.69,4.16-11.85c1.55-4.42,1.79-8.12.73-11.1Z"/>
        <path class="cls-1" d="m759.61,468.03c-.32-2.67.1-5.63,1.24-8.89l6.49,2.28c-.18.36-.38.86-.61,1.51-1.27,3.63-1.19,6.85.24,9.68,1.44,2.83,4.15,4.94,8.15,6.35l18.41,6.46-2.35,6.69-36.96-12.98,2.25-6.42,6.21,2.18c-1.73-1.91-2.75-4.2-3.07-6.87Z"/>
        <path class="cls-1" d="m800.99,457.73c-2.66,2.36-5.7,3.86-9.14,4.51-3.44.65-6.97.33-10.6-.94-3.63-1.27-6.58-3.24-8.86-5.89-2.28-2.65-3.71-5.73-4.28-9.22-.58-3.49-.22-7.07,1.07-10.75,1.29-3.67,3.25-6.68,5.87-9.02,2.62-2.34,5.65-3.84,9.09-4.48,3.44-.65,6.97-.33,10.6.94,3.63,1.27,6.58,3.24,8.86,5.89,2.28,2.66,3.72,5.72,4.33,9.2.61,3.48.27,7.05-1.02,10.73-1.29,3.67-3.26,6.69-5.92,9.05Zm.66-18.06c-.43-2.27-1.45-4.28-3.05-6.04-1.6-1.76-3.68-3.09-6.24-3.99-2.56-.9-5.01-1.16-7.36-.78-2.35.38-4.39,1.32-6.12,2.82-1.73,1.51-3.01,3.45-3.84,5.82-.83,2.37-1.04,4.69-.64,6.94.41,2.26,1.41,4.28,3,6.07,1.59,1.79,3.67,3.13,6.22,4.03,2.56.9,5.02,1.15,7.38.75s4.42-1.35,6.17-2.85c1.75-1.5,3.05-3.43,3.88-5.81.83-2.37,1.03-4.69.6-6.96Z"/>
        <path class="cls-1" d="m803.33,351.11c3.65-1.77,8.13-1.73,13.43.13l21.27,7.47-2.35,6.69-20.5-7.2c-3.58-1.26-6.57-1.38-8.96-.36-2.39,1.01-4.13,3.06-5.21,6.12-1.19,3.39-1.08,6.46.33,9.2,1.41,2.74,4.1,4.81,8.05,6.19l19.04,6.68-2.35,6.7-20.5-7.2c-3.58-1.26-6.57-1.38-8.96-.36-2.39,1.01-4.13,3.05-5.21,6.12-1.19,3.39-1.08,6.46.33,9.2,1.41,2.74,4.1,4.81,8.05,6.19l19.04,6.69-2.35,6.69-36.96-12.98,2.25-6.42,5.51,1.93c-1.43-2.02-2.26-4.29-2.5-6.83-.23-2.54.14-5.2,1.12-7.99,1.01-2.88,2.49-5.24,4.44-7.06,1.94-1.82,4.25-2.95,6.9-3.37-1.65-2.15-2.64-4.67-2.97-7.59-.34-2.91.04-5.92,1.14-9.04,1.63-4.65,4.28-7.86,7.93-9.63Z"/>
        <path class="cls-1" d="m842.5,339.53c-2.66,2.36-5.7,3.86-9.14,4.51-3.44.65-6.97.33-10.6-.94-3.63-1.27-6.58-3.24-8.86-5.89-2.28-2.66-3.71-5.73-4.28-9.22-.57-3.49-.22-7.07,1.07-10.75,1.29-3.67,3.25-6.68,5.87-9.02,2.62-2.34,5.66-3.84,9.09-4.48,3.44-.65,6.97-.33,10.6.94,3.63,1.27,6.58,3.24,8.86,5.89,2.28,2.65,3.72,5.72,4.33,9.2.61,3.48.27,7.05-1.02,10.73-1.29,3.67-3.26,6.69-5.92,9.05Zm.66-18.06c-.43-2.27-1.45-4.28-3.05-6.04-1.6-1.76-3.68-3.09-6.24-3.99-2.56-.9-5.01-1.16-7.36-.78-2.35.38-4.39,1.32-6.13,2.82-1.73,1.51-3.01,3.45-3.84,5.82-.83,2.37-1.04,4.69-.64,6.94.41,2.26,1.41,4.28,3,6.07,1.59,1.79,3.67,3.13,6.22,4.03,2.56.9,5.02,1.15,7.38.75,2.36-.4,4.42-1.35,6.17-2.85,1.75-1.5,3.05-3.43,3.88-5.81s1.03-4.69.6-6.96Z"/>
        <path class="cls-1" d="m858.08,295.14c-2.66,2.38-5.72,3.91-9.17,4.58-3.45.67-6.99.37-10.61-.91-3.63-1.27-6.58-3.25-8.85-5.93-2.27-2.68-3.69-5.77-4.26-9.29-.57-3.52-.19-7.16,1.13-10.92,1.18-3.35,2.9-6.1,5.17-8.25,2.27-2.15,4.94-3.5,8-4.05l1.49,6.24c-2.17.54-4.01,1.52-5.49,2.93-1.49,1.41-2.6,3.16-3.33,5.25-.85,2.42-1.08,4.78-.68,7.08.39,2.3,1.38,4.35,2.98,6.14,1.59,1.79,3.67,3.13,6.22,4.03,2.6.91,5.09,1.17,7.44.77,2.36-.4,4.42-1.38,6.16-2.93,1.75-1.55,3.04-3.54,3.89-5.96.74-2.09.96-4.15.68-6.18-.28-2.03-1.1-3.94-2.46-5.72l5-3.96c2.05,2.34,3.3,5.06,3.75,8.17.45,3.11.09,6.34-1.09,9.68-1.32,3.77-3.31,6.84-5.98,9.22Z"/>
        <path class="cls-1" d="m826.67,246.04c-1.14.57-2.31.64-3.52.21-1.21-.42-2.09-1.22-2.65-2.38-.56-1.16-.61-2.39-.15-3.7.46-1.3,1.24-2.24,2.36-2.81,1.12-.57,2.28-.65,3.49-.23,1.25.44,2.16,1.24,2.72,2.4.56,1.16.61,2.4.15,3.7-.46,1.3-1.25,2.24-2.39,2.8Zm8.33,3.04l2.35-6.7,36.96,12.98-2.35,6.7-36.96-12.98Z"/>
        <path class="cls-1" d="m878.86,235.97c-2.66,2.36-5.7,3.86-9.14,4.51-3.44.65-6.97.33-10.6-.94-3.63-1.27-6.58-3.24-8.86-5.89-2.28-2.65-3.71-5.73-4.28-9.22-.58-3.49-.22-7.07,1.07-10.75,1.29-3.67,3.25-6.68,5.87-9.02,2.62-2.34,5.66-3.84,9.09-4.48,3.44-.65,6.97-.33,10.6.94,3.63,1.27,6.58,3.24,8.86,5.89,2.28,2.66,3.72,5.72,4.33,9.2.61,3.48.26,7.05-1.02,10.73-1.29,3.67-3.26,6.69-5.92,9.05Zm.66-18.06c-.43-2.27-1.45-4.28-3.05-6.04-1.6-1.76-3.68-3.09-6.24-3.99-2.56-.9-5.01-1.16-7.36-.78-2.35.38-4.39,1.32-6.12,2.82-1.73,1.51-3.01,3.45-3.84,5.82-.83,2.37-1.04,4.68-.64,6.94s1.41,4.28,3,6.07c1.59,1.79,3.67,3.13,6.22,4.03,2.56.9,5.02,1.15,7.37.75,2.36-.4,4.42-1.35,6.17-2.85,1.75-1.5,3.05-3.43,3.88-5.8.84-2.37,1.03-4.69.6-6.96Z"/>
        <path class="cls-1" d="m871.98,155.72c3.69-1.81,8.16-1.79,13.42.05l21.27,7.47-2.35,6.69-20.5-7.2c-3.58-1.26-6.58-1.34-9-.26-2.42,1.08-4.19,3.23-5.32,6.44-1.27,3.63-1.22,6.86.16,9.69,1.38,2.84,4.05,4.95,8,6.33l19.04,6.68-2.35,6.7-36.96-12.98,2.25-6.42,5.58,1.96c-1.43-2.02-2.26-4.36-2.47-7.02-.22-2.66.19-5.45,1.22-8.38,1.65-4.69,4.32-7.95,8.01-9.76Z"/>
        <path class="cls-1" d="m886.33,113.84c3.46-1.84,7.68-1.88,12.66-.14l22.32,7.83-2.23,6.35-4.88-1.71c1.33,1.72,2.08,3.77,2.26,6.16.18,2.39-.23,5-1.22,7.84-1.45,4.14-3.62,7.1-6.49,8.89-2.87,1.79-5.93,2.11-9.19.96-3.26-1.14-5.45-3.25-6.6-6.31-1.14-3.06-.81-7.18,1-12.34l3.72-10.6-1.32-.46c-2.88-1.01-5.38-.95-7.51.18-2.12,1.13-3.75,3.33-4.9,6.58-.77,2.19-1.16,4.45-1.17,6.79-.01,2.35.33,4.45,1.03,6.32l-6,1.03c-.86-2.44-1.24-5.13-1.12-8.07.12-2.93.7-5.89,1.74-8.87,1.8-5.11,4.43-8.59,7.89-10.43Zm24.75,16.17c-.49-2.26-1.63-4.18-3.43-5.75l-5.16-1.81-3.62,10.32c-1.99,5.67-1.08,9.18,2.73,10.52,1.86.65,3.58.45,5.15-.62,1.58-1.07,2.81-2.88,3.71-5.44.9-2.55,1.1-4.96.62-7.22Z"/>
        <path class="cls-1" d="m873.92,90.96l2.35-6.7,51.75,18.17-2.35,6.7-51.75-18.17Z"/>
      </g>
      <polygon class="cls-2" points="420.91 618.09 421.33 804.73 559.4 911.32 552.79 618.09 420.91 618.09"/>
      <path class="cls-2" d="m424.4,476.93c-25.76,0-43-4.51-51.73-13.52-8.73-9.02-13.09-27.11-13.09-54.31V88.67l-174.29,35.06v313.28c0,2.43.03,4.83.08,7.22l125.53,191.8c22.64,7.27,48.02,10.91,76.15,10.91h46.36v-170h-9.02Z"/>
    </g>
  </g>
</svg>